HIERARCHY
ROOT Hips
{
	OFFSET 0.000000 0.000000 0.000000
	CHANNELS 6 Xposition Yposition Zposition Zrotation Yrotation Xrotation 
	JOINT LHipJoint
	{
		OFFSET 0.000000 0.000000 0.000000
		CHANNELS 3 Zrotation Yrotation Xrotation
		JOINT LeftUpLeg
		{
			OFFSET 1.363060 -1.794630 0.839290
			CHANNELS 3 Zrotation Yrotation Xrotation
			JOINT LeftLeg
			{
				OFFSET 2.448110 -6.726130 0.000000
				CHANNELS 3 Zrotation Yrotation Xrotation
				JOINT LeftFoot
				{
					OFFSET 2.562200 -7.039590 0.000000
					CHANNELS 3 Zrotation Yrotation Xrotation
					JOINT LeftToeBase
					{
						OFFSET 0.157640 -0.433110 2.322550
						CHANNELS 3 Zrotation Yrotation Xrotation
						End Site
						{
							OFFSET 0.000000 0.000000 0.000000
						}
					}
				}
			}
		}
	}
	JOINT RHipJoint
	{
		OFFSET 0.000000 0.000000 0.000000
		CHANNELS 3 Zrotation Yrotation Xrotation
		JOINT RightUpLeg
		{
			OFFSET -1.305520 -1.794630 0.839290
			CHANNELS 3 Zrotation Yrotation Xrotation
			JOINT RightLeg
			{
				OFFSET -2.542530 -6.985550 0.000000
				CHANNELS 3 Zrotation Yrotation Xrotation
				JOINT RightFoot
				{
					OFFSET -2.568260 -7.056230 0.000000
					CHANNELS 3 Zrotation Yrotation Xrotation
					JOINT RightToeBase
					{
						OFFSET -0.164730 -0.452590 2.363150
						CHANNELS 3 Zrotation Yrotation Xrotation
						End Site
						{
							OFFSET 0.000000 0.000000 0.000000
						}
					}
				}
			}
		}
	}
	JOINT LowerBack
	{
		OFFSET 0.000000 0.000000 0.000000
		CHANNELS 3 Zrotation Yrotation Xrotation
		JOINT Spine
		{
			OFFSET 0.028270 2.035590 -0.193380
			CHANNELS 3 Zrotation Yrotation Xrotation
			JOINT Spine1
			{
				OFFSET 0.056720 2.048850 -0.042750
				CHANNELS 3 Zrotation Yrotation Xrotation
				JOINT Neck
				{
					OFFSET 0.000000 0.000000 0.000000
					CHANNELS 3 Zrotation Yrotation Xrotation
					JOINT Neck1
					{
						OFFSET -0.054170 1.746240 0.172020
						CHANNELS 3 Zrotation Yrotation Xrotation
						JOINT Head
						{
							OFFSET 0.104070 1.761360 -0.123970
							CHANNELS 3 Zrotation Yrotation Xrotation
							End Site
							{
								OFFSET 0.000000 0.000000 0.000000
							}
						}
					}
				}
				JOINT LeftShoulder
				{
					OFFSET 0.000000 0.000000 0.000000
					CHANNELS 3 Zrotation Yrotation Xrotation
					JOINT LeftArm
					{
						OFFSET 3.362410 1.200890 -0.311210
						CHANNELS 3 Zrotation Yrotation Xrotation
						JOINT LeftForeArm
						{
							OFFSET 4.983000 -0.000000 -0.000000
							CHANNELS 3 Zrotation Yrotation Xrotation
							JOINT LeftHand
							{
								OFFSET 3.483560 -0.000000 -0.000000
								CHANNELS 3 Zrotation Yrotation Xrotation
								JOINT LeftFingerBase
								{
									OFFSET 0.000000 0.000000 0.000000
									CHANNELS 3 Zrotation Yrotation Xrotation
									JOINT LeftHandIndex1
									{
										OFFSET 0.715260 -0.000000 -0.000000
										CHANNELS 3 Zrotation Yrotation Xrotation
										End Site
										{
											OFFSET 0.000000 0.000000 0.000000
										}
									}
								}
								JOINT LThumb
								{
									OFFSET 0.000000 0.000000 0.000000
									CHANNELS 3 Zrotation Yrotation Xrotation
									End Site
									{
										OFFSET 0.000000 0.000000 0.000000
									}
								}
							}
						}
					}
				}
				JOINT RightShoulder
				{
					OFFSET 0.000000 0.000000 0.000000
					CHANNELS 3 Zrotation Yrotation Xrotation
					JOINT RightArm
					{
						OFFSET -3.136600 1.374050 -0.404650
						CHANNELS 3 Zrotation Yrotation Xrotation
						JOINT RightForeArm
						{
							OFFSET -5.241900 -0.000000 -0.000000
							CHANNELS 3 Zrotation Yrotation Xrotation
							JOINT RightHand
							{
								OFFSET -3.444170 -0.000000 -0.000000
								CHANNELS 3 Zrotation Yrotation Xrotation
								JOINT RightFingerBase
								{
									OFFSET 0.000000 0.000000 0.000000
									CHANNELS 3 Zrotation Yrotation Xrotation
									JOINT RightHandIndex1
									{
										OFFSET -0.622530 -0.000000 -0.000000
										CHANNELS 3 Zrotation Yrotation Xrotation
										End Site
										{
											OFFSET 0.000000 0.000000 0.000000
										}
									}
								}
								JOINT RThumb
								{
									OFFSET 0.000000 0.000000 0.000000
									CHANNELS 3 Zrotation Yrotation Xrotation
									End Site
									{
										OFFSET 0.000000 0.000000 0.000000
									}
								}
							}
						}
					}
				}
			}
		}
	}
}
MOTION
Frames: 8
Frame Time: 0.008333
25.552524 17.401235 2.168421 108.458803 -86.160515 -78.056211 -7.678846 1.567764 4.964186 -17.549361 -10.609333 -55.515656 -2.017292 1.293795 34.707780 2.504688 10.890416 -6.532567 1.059000 0.000000 -37.963300 11.828566 -4.088449 1.348705 4.682179 -5.831445 -6.694706 1.279101 -0.494328 6.447896 0.116709 4.911392 25.878426 2.499900 0.000000 -72.667000 -4.678536 0.001982 -6.335259 -2.155050 0.090323 -4.750508 -7.400218 0.048970 -1.786764 11.539937 -7.483077 -7.445216 -2.838873 -0.224580 0.008418 0.000000 0.000000 0.000000 8.121516 11.798529 0.966650 -61.872801 40.115881 29.320052 179.883858 -84.959736 179.977005 17.736576 -3.317218 -0.546372 -0.284617 0.149419 -0.000000 0.000000 0.000000 0.000000 0.000000 0.000000 0.000000 11.162619 0.252595 -0.519836 77.775509 25.751560 31.519303 179.139021 78.629908 179.988171 -4.791666 17.480777 -0.802076 0.179516 -0.927548 0.000000 0.000000 0.000000 0.000000 0.000000 0.000000 0.000000 
25.337799 17.431293 2.172241 105.564551 -86.245388 -75.250508 -7.622519 1.660369 5.101561 -17.467744 -10.909098 -54.589787 -2.108960 1.114873 32.739091 2.421445 10.772639 -5.574722 1.271500 0.000000 -38.813300 11.904504 -4.102671 1.212247 4.607563 -6.284059 -6.383641 1.195669 -0.554788 6.943262 0.038755 4.727700 26.804988 2.500800 0.000000 -70.727000 -4.769674 -0.035759 -6.312304 -2.174288 0.061189 -4.745618 -7.417364 0.021442 -1.799379 11.556537 -7.529496 -7.463675 -2.811301 -0.222088 0.004210 0.000000 0.000000 0.000000 8.230803 11.802951 0.983784 -62.042150 40.047757 28.869193 179.890353 -84.700704 179.976159 17.682090 -3.357894 -0.551665 -0.284568 0.153371 -0.000000 0.000000 0.000000 0.000000 0.000000 0.000000 0.000000 10.970412 0.220937 -0.570908 78.182495 25.331842 31.569884 179.138371 78.493610 179.988329 -4.641399 17.348940 -0.771094 0.173831 -0.927203 -0.000000 0.000000 0.000000 0.000000 0.000000 0.000000 0.000000 
25.124221 17.450088 2.176696 102.419620 -86.345850 -72.218400 -7.579089 1.734485 5.218115 -17.310989 -11.212811 -53.668504 -2.168774 0.956090 31.050538 2.351481 10.700821 -4.734768 1.453100 -0.000000 -39.336200 11.955656 -4.101222 1.076421 4.579418 -6.623216 -6.092817 1.102745 -0.612824 7.703301 -0.047661 4.143835 27.114222 2.226300 0.000000 -68.747300 -4.823382 -0.070422 -6.263264 -2.184142 0.032758 -4.735135 -7.431111 -0.005680 -1.814398 11.553827 -7.563948 -7.482071 -2.783416 -0.219513 -0.000179 0.000000 0.000000 0.000000 8.300335 11.800141 1.006183 -62.216082 39.878455 28.424982 179.896343 -84.533608 179.975397 17.523361 -3.386374 -0.551778 -0.282566 0.157272 -0.000000 0.000000 0.000000 0.000000 0.000000 0.000000 0.000000 10.761069 0.196979 -0.624214 78.587238 24.827808 31.597856 179.150996 78.441381 179.987752 -4.558343 17.197062 -0.750417 0.168818 -0.924950 -0.000000 0.000000 0.000000 0.000000 0.000000 0.000000 0.000000 
24.906071 17.452116 2.191015 87.510899 -86.590772 -57.293251 -7.545615 1.878719 5.586483 -16.536808 -12.340716 -53.113178 -2.106817 0.837108 29.801678 2.320955 10.734474 -3.923679 1.640400 0.000001 -39.604700 11.954780 -4.058634 0.821159 5.076983 -7.552642 -5.891703 1.074149 -0.623573 8.513174 -0.114195 3.112652 26.968316 1.643600 -0.000000 -66.701100 -4.466062 -0.221545 -6.335626 -2.088106 -0.151523 -4.736321 -7.425682 -0.193306 -1.801553 11.451940 -7.614233 -7.506767 -2.739384 -0.215611 -0.000305 0.000000 0.000000 0.000000 8.256986 11.723059 1.018568 -62.395903 39.656195 28.081608 179.901734 -84.437481 179.974601 17.252988 -3.422955 -0.549581 -0.279505 0.162351 -0.000000 0.000000 0.000000 0.000000 0.000000 0.000000 0.000000 10.353572 0.059451 -0.727346 78.975189 24.139976 31.593608 179.173609 78.405143 179.986045 -4.545233 17.025088 -0.739987 0.163086 -0.918915 0.000000 0.000000 0.000000 0.000000 0.000000 0.000000 0.000000 
24.694957 17.447666 2.197253 84.154134 -86.672280 -54.108907 -7.540036 1.920681 5.641704 -16.281827 -12.577477 -52.220181 -2.108148 0.733645 28.752195 2.278512 10.710291 -3.427682 1.735500 -0.000001 -39.458200 11.944308 -4.028159 0.690569 5.122011 -7.658154 -5.626696 0.956867 -0.680022 9.751217 -0.227198 1.786258 26.209847 0.901900 -0.000000 -64.893200 -4.460204 -0.233914 -6.225464 -2.081566 -0.161239 -4.714389 -7.430897 -0.202833 -1.823836 11.409585 -7.628427 -7.523643 -2.712362 -0.213025 -0.004788 0.000000 0.000000 0.000000 8.249051 11.703859 1.045700 -62.584967 39.295227 27.669014 179.906665 -84.433130 179.974085 16.882606 -3.478450 -0.546629 -0.273456 0.166983 -0.000000 0.000000 0.000000 0.000000 0.000000 0.000000 0.000000 10.117364 0.053999 -0.777046 79.347777 23.491047 31.579317 179.208068 78.487953 179.984106 -4.596393 16.831819 -0.739213 0.159851 -0.913339 -0.000000 0.000000 0.000000 0.000000 0.000000 0.000000 0.000000 
24.484680 17.431377 2.204570 81.001503 -86.766534 -51.158254 -7.552021 1.944253 5.660337 -16.009240 -12.755171 -51.346079 -2.087184 0.658861 28.046472 2.249805 10.693410 -3.157752 1.775800 0.000000 -39.008701 11.910199 -3.985902 0.567703 5.192964 -7.652874 -5.378577 0.829869 -0.736325 11.189213 -0.362641 0.185152 25.039066 0.031400 -0.000001 -63.242100 -4.426664 -0.234925 -6.087073 -2.068772 -0.160796 -4.687007 -7.432314 -0.202038 -1.848184 11.350140 -7.640024 -7.541996 -2.687360 -0.210553 -0.009958 0.000000 0.000000 0.000000 8.201416 11.678135 1.071756 -62.777607 38.850567 27.277967 179.910950 -84.492528 179.973723 16.424317 -3.569380 -0.545688 -0.265710 0.172274 -0.000000 0.000000 0.000000 0.000000 0.000000 0.000000 0.000000 9.880437 0.051779 -0.820869 79.693100 22.790465 31.556942 179.249482 78.626619 179.981729 -4.696698 16.617054 -0.744942 0.157413 -0.906288 0.000000 0.000000 0.000000 0.000000 0.000000 0.000000 0.000000 
24.275756 17.403048 2.212849 78.248162 -86.868489 -48.632701 -7.578640 1.951358 5.644712 -15.745449 -12.870347 -50.497805 -2.049697 0.611888 27.689727 2.237012 10.684740 -3.150114 1.755501 -0.000000 -38.289600 11.860467 -3.931617 0.452175 5.267057 -7.570052 -5.174807 0.697443 -0.794259 12.832443 -0.521434 -1.566816 23.513450 -0.865900 -0.000001 -61.587800 -4.378057 -0.226258 -5.925334 -2.052913 -0.150802 -4.655569 -7.430549 -0.191385 -1.875211 11.276262 -7.648409 -7.562219 -2.665510 -0.208290 -0.015935 0.000000 0.000000 0.000000 8.114523 11.646122 1.095505 -62.968032 38.338096 26.908859 179.914598 -84.598979 179.973522 15.898432 -3.709985 -0.548755 -0.256653 0.178397 -0.000000 0.000000 0.000000 0.000000 0.000000 0.000000 0.000000 9.651382 0.054661 -0.856403 80.009376 22.045127 31.530323 179.295585 78.816815 179.979179 -4.819296 16.380765 -0.752774 0.155267 -0.897872 -0.000000 0.000000 0.000000 0.000000 0.000000 0.000000 0.000000 
24.067555 17.362842 2.222126 75.964576 -86.985131 -46.596771 -7.618438 1.942612 5.595023 -15.502431 -12.913237 -49.689747 -2.000598 0.591793 27.688929 2.240793 10.678877 -3.440076 1.667500 0.000000 -37.340600 11.799801 -3.868201 0.349413 5.342521 -7.407236 -5.019954 0.562770 -0.854027 14.633512 -0.706502 -3.395517 21.751055 -1.722200 0.000000 -60.061901 -4.314456 -0.209706 -5.747369 -2.034475 -0.133263 -4.620809 -7.426963 -0.172739 -1.901665 11.194080 -7.662389 -7.589034 -2.648848 -0.206348 -0.024026 0.000000 0.000000 0.000000 7.980505 11.615437 1.114136 -63.143735 37.767622 26.563052 179.917649 -84.732951 179.973468 15.335746 -3.903484 -0.556522 -0.246891 0.185338 -0.000000 0.000000 0.000000 0.000000 0.000000 0.000000 0.000000 9.449466 0.054208 -0.879820 80.287864 21.277549 31.515984 179.343061 79.059038 179.976785 -4.938385 16.125642 -0.758611 0.153170 -0.888183 0.000000 0.000000 0.000000 0.000000 0.000000 0.000000 0.000000 
